<svg width="35" height="28" viewBox="0 0 35 28" fill="none" xmlns="http://www.w3.org/2000/svg">
<path d="M34.2887 0.15625L34.4565 0.308994V1.24264L34.3074 1.37629C32.9426 1.41448 32.0961 1.48512 31.768 1.58632C31.4398 1.68751 31.2068 1.85553 31.0707 2.09037C30.9346 2.32522 30.8563 2.78536 30.8376 3.4708C30.819 4.15624 30.7854 6.09418 30.7351 9.28081V18.0636C30.7351 19.3333 30.7537 20.7691 30.791 22.3691C30.8283 23.9691 30.9047 24.9008 31.0241 25.1605C31.1415 25.4201 31.3559 25.6111 31.6654 25.7314C31.9749 25.8516 32.8568 25.9318 34.3074 25.97L34.4565 26.1037V27.0373L34.2887 27.1901C32.2676 27.0755 30.5057 27.0182 29.0049 27.0182C27.9869 27.0182 26.2567 27.0755 23.8142 27.1901L23.6464 27.0373V26.1228L23.7956 25.97C25.1604 25.9318 26.0068 25.8631 26.335 25.76C26.6631 25.6588 26.8962 25.4908 27.0323 25.2559C27.1684 25.0211 27.2485 24.5552 27.2746 23.8564C27.2989 23.1576 27.3306 21.2273 27.3679 18.0655V4.08178L20.9486 17.8364C19.3358 21.2789 17.9281 24.517 16.7256 27.5528H16.0003C15.3049 25.9146 14.7343 24.6068 14.2887 23.6273L5.3953 4.70994V18.0273C5.3953 19.2722 5.41021 20.7042 5.44191 22.3232C5.4736 23.9423 5.55005 24.8798 5.67496 25.1337C5.79802 25.3877 6.01616 25.5786 6.32566 25.7046C6.63516 25.8325 7.51704 25.907 8.96759 25.9337L9.11674 26.0865V27.001L8.94894 27.1729L7.75756 27.1156C6.52888 27.0526 5.47547 27.0201 4.59545 27.0201C4.19832 27.0201 2.71608 27.0698 0.148729 27.1729L-0.000427246 27.0201V26.1056L0.148729 25.9337C1.51351 25.9089 2.35624 25.8459 2.67879 25.7428C3.00134 25.6416 3.2344 25.4698 3.3761 25.2292C3.51779 24.9886 3.59983 24.538 3.61847 23.8774C3.63712 23.2168 3.66509 21.2674 3.70237 18.0292V9.30372C3.70237 8.14859 3.68746 6.74143 3.65576 5.08416C3.62407 3.42688 3.54949 2.46841 3.43203 2.20684C3.31457 1.94718 3.10016 1.75243 2.79066 1.62641C2.48116 1.5004 1.59927 1.42403 0.148729 1.3973L-0.000427246 1.24455V0.328087L0.167373 0.15625C1.02316 0.219257 2.17725 0.251715 3.6278 0.251715C4.99258 0.251715 6.1821 0.221166 7.20009 0.15625C8.24232 2.62116 9.2398 4.84932 10.1963 6.84454L17.2476 21.6664L23.611 8.08176C25.3356 4.41209 26.4953 1.76961 27.0901 0.15625C28.2814 0.219257 29.4523 0.251715 30.6064 0.251715C31.6468 0.251715 32.8736 0.221166 34.2887 0.15625Z" fill="#333333"/>
</svg>
