<svg width="11" height="28" viewBox="0 0 11 28" fill="none" xmlns="http://www.w3.org/2000/svg">
<path d="M0.189412 0.0996094L2.5144 0.175981C4.03953 0.227532 5.03888 0.252353 5.51059 0.252353C5.93196 0.252353 7.71253 0.202712 10.8504 0.0996094L10.9996 0.23326V1.186L10.8504 1.31965C9.99463 1.34447 9.33461 1.38266 8.86849 1.43421C8.40238 1.48576 8.06491 1.58123 7.85422 1.7206C7.64354 1.85998 7.50371 2.18647 7.43472 2.70198C7.36573 3.21559 7.33218 3.93157 7.33218 4.84613L7.29489 9.22797V18.0489L7.31353 21.7644C7.32658 23.2002 7.36201 24.1262 7.4254 24.5463C7.48693 24.9663 7.57641 25.2451 7.69574 25.3845C7.8132 25.5238 8.04067 25.6422 8.3744 25.7377C8.71001 25.8331 9.53411 25.9057 10.8486 25.9573L10.9977 26.0718V27.0246L10.8486 27.1773C10.787 27.1773 9.69445 27.1391 7.57455 27.0627C6.69453 27.0379 6.00467 27.0246 5.50873 27.0246C5.12465 27.0246 3.34968 27.0742 0.187552 27.1773L0.0383911 27.0246V26.0718L0.187552 25.9573C1.34165 25.9076 2.10981 25.8427 2.49389 25.7663C2.87797 25.69 3.13526 25.5926 3.26578 25.4704C3.39629 25.3501 3.5007 25.0923 3.58274 24.699C3.66291 24.3057 3.70952 23.4293 3.72257 22.0699L3.74122 18.0508V9.22988L3.70393 5.51438C3.69088 4.06713 3.65732 3.13349 3.60138 2.71344C3.54545 2.29339 3.45782 2.01464 3.34035 1.87526C3.22289 1.73588 2.99543 1.62132 2.66169 1.53158C2.32609 1.44376 1.502 1.37311 0.187552 1.32156L0.0383911 1.18791V0.23326L0.189412 0.0996094Z" fill="#333333"/>
</svg>
