<svg width="28" height="28" viewBox="0 0 28 28" fill="none" xmlns="http://www.w3.org/2000/svg">
<path d="M0.162384 0.232384L0.311538 0.0987329C2.45752 0.199926 3.92112 0.251477 4.70232 0.251477L13.4093 0.0605469C15.889 0.0605469 17.9231 0.29921 19.5117 0.774626C21.1002 1.25004 22.5097 2.07677 23.744 3.25099C24.9782 4.42521 25.9142 5.79227 26.5537 7.34644C27.1913 8.90252 27.512 10.5636 27.512 12.3278C27.512 14.0424 27.2212 15.7378 26.6376 17.4142C26.054 19.0906 25.2262 20.5932 24.1541 21.9201C23.0821 23.2471 21.859 24.3182 20.4886 25.1297C19.1183 25.943 17.7442 26.4853 16.3682 26.7583C14.9922 27.0313 13.5846 27.1669 12.1452 27.1669C11.1776 27.1669 9.35413 27.1287 6.67491 27.0523C5.79489 27.0275 5.21132 27.0142 4.92606 27.0142C4.07027 27.0142 3.03364 27.0638 1.81988 27.1669L1.67072 27.0142V26.386L1.81988 26.1951C2.55074 25.8132 2.97025 25.5765 3.07652 25.481C3.18093 25.3855 3.26856 24.2743 3.33754 22.1473C3.40466 20.0204 3.44009 18.3975 3.44009 17.2805V10.2925L3.42145 5.96793C3.42145 5.02855 3.40839 4.26292 3.38416 3.67295C3.35992 3.08297 3.31517 2.66102 3.25364 2.40517C3.19212 2.15123 3.1194 1.97367 3.03923 1.87247C2.95906 1.77128 2.82855 1.68536 2.6477 1.61472C2.46871 1.54407 2.16107 1.48489 1.72666 1.43333L0.313404 1.31878L0.16425 1.18513V0.232384H0.162384ZM7.04594 25.0953C8.3119 25.3492 9.76804 25.4772 11.4181 25.4772C14.308 25.4772 16.618 24.9827 18.3482 23.9917C20.0785 23.0008 21.3705 21.5345 22.2263 19.5908C23.0821 17.6471 23.5109 15.4572 23.5109 13.019C23.5109 9.42376 22.575 6.63618 20.7012 4.65433C18.8293 2.67247 15.876 1.68154 11.845 1.68154C10.1838 1.68154 8.58224 1.80947 7.04594 2.0634C6.94712 4.14645 6.89678 6.4968 6.89678 9.11255V15.0944L6.93407 20.6963C6.93407 21.7865 6.97136 23.2547 7.04594 25.0953Z" fill="#333333"/>
</svg>
