<svg width="22" height="28" viewBox="0 0 22 28" fill="none" xmlns="http://www.w3.org/2000/svg">
<path d="M0.688324 0.23326L0.837481 0.0996094C5.09216 0.175981 7.81427 0.214167 9.00565 0.214167C13.0739 0.214167 16.6947 0.175981 19.8698 0.0996094L19.963 0.23326C19.6535 1.4533 19.4242 3.36452 19.2751 5.9688L19.1632 6.12155H18.2515L18.0837 5.9688C18.0967 5.85425 18.1023 5.75305 18.1023 5.66332C18.1023 4.58456 18.0222 3.55545 17.8599 2.57597C17.0787 2.22084 15.9955 1.98791 14.6139 1.88099C13.2305 1.77407 12.192 1.7187 11.4984 1.7187C10.5177 1.7187 9.26668 1.78934 7.73969 1.92872L7.66511 4.97597L7.60918 8.46235L7.55324 12.3306C8.89192 12.407 10.1262 12.4452 11.256 12.4452C12.3971 12.4452 13.3517 12.407 14.1217 12.3306C14.8899 12.2542 15.3411 12.1759 15.4697 12.0919C15.6002 12.0098 15.699 11.8514 15.768 11.6165C15.8351 11.3817 15.8948 10.9654 15.9452 10.3678L16.0197 9.18598L16.1689 9.03323H17.0247L17.1738 9.18598C17.1496 10.5702 17.1179 11.9621 17.0806 13.3578L17.1738 17.6442L17.0247 17.7969H16.1689L16.0197 17.6442L15.8892 16.5005C15.7773 15.6108 15.6972 15.0819 15.6468 14.9101C15.5965 14.7382 15.4828 14.5893 15.3019 14.4633C15.1211 14.3373 14.6605 14.2342 13.9166 14.1578C13.1727 14.0814 12.1491 14.0432 10.8477 14.0432C10.1281 14.0432 9.02989 14.0757 7.55511 14.1387C7.49358 15.206 7.46188 16.9836 7.46188 19.4733C7.46188 22.1406 7.49358 24.1034 7.55511 25.3597H10.9782C13.9931 25.3597 15.878 25.3215 16.6331 25.2451C17.3901 25.1687 18.1098 24.9855 18.7922 24.6933C18.904 24.4012 19.0868 23.7253 19.3403 22.6637C19.5939 21.6041 19.7412 20.9396 19.7785 20.6723L19.9649 20.5387H20.858L21.0071 20.6723C20.8953 21.2184 20.7871 22.1711 20.6809 23.5306C20.5746 24.89 20.5224 26.0528 20.5224 27.0169L20.3919 27.1697C18.0221 27.0933 14.9216 27.0551 11.0901 27.0551L6.02998 27.0169C4.85165 27.0169 3.62297 27.0666 2.34582 27.1697L2.19667 27.0169V26.3888L2.34582 26.1979C3.07669 25.816 3.49619 25.5792 3.60247 25.4838C3.70688 25.3883 3.7945 24.2771 3.86349 22.1501C3.93061 20.0232 3.96603 18.4003 3.96603 17.2833V10.2934L3.94739 5.9688C3.94739 5.02943 3.93434 4.2638 3.9101 3.67382C3.88586 3.08385 3.84112 2.66189 3.77959 2.40605C3.71806 2.15211 3.64535 1.97454 3.56518 1.87335C3.48501 1.77216 3.35449 1.68624 3.17364 1.6156C2.99279 1.54495 2.68702 1.48576 2.2526 1.43421L0.839344 1.31965L0.69019 1.186V0.23326H0.688324Z" fill="#333333"/>
</svg>
