<svg aria-hidden="true" style="position: absolute; width: 0; height: 0; overflow: hidden;" version="1.1" xmlns="http://www.w3.org/2000/svg" xmlns:xlink="http://www.w3.org/1999/xlink">
<defs>
<symbol id="icon-facebook" viewBox="0 0 32 32">
<path fill="#4fbfa5" style="fill: var(--color1, #4fbfa5)" d="M17.863 27.996v-10.928h3.687l0.548-4.279h-4.235v-2.725c0-1.235 0.344-2.080 2.116-2.080h2.245v-3.815c-1.092-0.117-2.191-0.174-3.289-0.169-3.259 0-5.496 1.989-5.496 5.641v3.14h-3.663v4.279h3.671v10.936h4.416z"></path>
</symbol>
<symbol id="icon-instagram" viewBox="0 0 32 32">
<path fill="#4fbfa5" style="fill: var(--color1, #4fbfa5)" d="M22 0h-12c-5.522 0-10 4.478-10 10v12c0 5.522 4.478 10 10 10h12c5.522 0 10-4.478 10-10v-12c0-5.522-4.478-10-10-10zM29 22c0 3.86-3.14 7-7 7h-12c-3.86 0-7-3.14-7-7v-12c0-3.86 3.14-7 7-7h12c3.86 0 7 3.14 7 7v12z"></path>
<path fill="#4fbfa5" style="fill: var(--color1, #4fbfa5)" d="M16 8c-4.418 0-8 3.582-8 8s3.582 8 8 8c4.418 0 8-3.582 8-8s-3.582-8-8-8zM16 21c-2.756 0-5-2.244-5-5 0-2.758 2.244-5 5-5s5 2.242 5 5c0 2.756-2.244 5-5 5z"></path>
<path fill="#4fbfa5" style="fill: var(--color1, #4fbfa5)" d="M24.597 8.467c0.589 0 1.066-0.477 1.066-1.066s-0.477-1.066-1.066-1.066c-0.589 0-1.066 0.477-1.066 1.066s0.477 1.066 1.066 1.066z"></path>
</symbol>
<symbol id="icon-vk" viewBox="0 0 32 32">
<path fill="#4fbfa5" style="fill: var(--color1, #4fbfa5)" d="M28.483 19.677c0 0 2.587 2.555 3.227 3.738 0.013 0.017 0.022 0.036 0.029 0.056 0.261 0.437 0.325 0.779 0.197 1.032-0.216 0.418-0.947 0.627-1.195 0.645h-4.573c-0.318 0-0.981-0.083-1.787-0.64-0.616-0.43-1.229-1.139-1.822-1.832-0.886-1.029-1.653-1.922-2.429-1.922-0.098-0-0.195 0.016-0.288 0.048-0.587 0.186-1.333 1.022-1.333 3.251 0 0.698-0.55 1.094-0.936 1.094h-2.094c-0.714 0-4.429-0.25-7.723-3.723-4.037-4.253-7.662-12.784-7.698-12.859-0.226-0.552 0.248-0.853 0.76-0.853h4.618c0.619 0 0.821 0.374 0.962 0.71 0.163 0.386 0.768 1.928 1.76 3.661 1.606 2.819 2.594 3.966 3.382 3.966 0.148 0 0.294-0.038 0.422-0.112 1.030-0.566 0.838-4.246 0.79-5.005 0-0.147-0.002-1.643-0.53-2.366-0.378-0.518-1.021-0.72-1.41-0.794 0.104-0.15 0.325-0.381 0.608-0.517 0.706-0.352 1.981-0.403 3.246-0.403h0.702c1.373 0.019 1.728 0.107 2.227 0.234 1.005 0.24 1.024 0.891 0.936 3.109-0.026 0.634-0.053 1.347-0.053 2.187 0 0.179-0.008 0.379-0.008 0.582-0.030 1.138-0.070 2.419 0.733 2.946 0.104 0.065 0.225 0.099 0.347 0.099 0.278 0 1.112 0 3.373-3.88 0.992-1.714 1.76-3.734 1.813-3.886 0.045-0.085 0.179-0.323 0.342-0.419 0.116-0.062 0.246-0.093 0.378-0.090h5.432c0.592 0 0.994 0.090 1.072 0.314 0.131 0.363-0.026 1.472-2.506 4.826-0.418 0.558-0.784 1.042-1.106 1.464-2.248 2.95-2.248 3.099 0.133 5.339z"></path>
</symbol>
<symbol id="icon-youtube" viewBox="0 0 32 32">
<path fill="#4fbfa5" style="fill: var(--color1, #4fbfa5)" d="M29.41 9.26c-0.159-0.592-0.471-1.132-0.905-1.565s-0.973-0.745-1.565-0.905c-2.18-0.59-10.94-0.59-10.94-0.59s-8.76 0-10.94 0.59c-0.592 0.159-1.132 0.471-1.565 0.905s-0.745 0.973-0.905 1.565c-0.407 2.223-0.605 4.48-0.59 6.74-0.015 2.26 0.183 4.517 0.59 6.74 0.159 0.592 0.471 1.132 0.905 1.565s0.973 0.745 1.565 0.905c2.18 0.59 10.94 0.59 10.94 0.59s8.76 0 10.94-0.59c0.592-0.159 1.132-0.471 1.565-0.905s0.745-0.973 0.905-1.565c0.407-2.223 0.605-4.48 0.59-6.74 0.015-2.26-0.183-4.517-0.59-6.74zM13.2 20.2v-8.4l7.27 4.2-7.27 4.2z"></path>
</symbol>
<symbol id="icon-eye" viewBox="0 0 38 32">
<path fill="#fff" style="fill: var(--color1, #fff)" d="M19.017 9.178c-0.931 0-1.82 0.185-2.668 0.554s-1.576 0.857-2.185 1.464c-0.609 0.607-1.098 1.333-1.468 2.179s-0.555 1.732-0.555 2.661c0 0.929 0.185 1.821 0.555 2.679s0.86 1.589 1.468 2.196c0.609 0.607 1.337 1.089 2.185 1.447s1.737 0.536 2.668 0.536c1.265 0 2.423-0.304 3.474-0.911s1.88-1.435 2.489-2.482c0.609-1.048 0.913-2.202 0.913-3.464 0-1.881-0.669-3.494-2.006-4.839s-2.96-2.018-4.87-2.018zM19.017 20.607c-0.812 0-1.576-0.208-2.292-0.625s-1.283-0.976-1.701-1.679-0.627-1.47-0.627-2.304c0-0.619 0.119-1.208 0.358-1.768s0.567-1.048 0.985-1.464c0.418-0.417 0.907-0.744 1.468-0.982s1.152-0.357 1.773-0.357c1.265 0 2.346 0.446 3.241 1.339s1.343 1.97 1.343 3.232c0 1.262-0.442 2.345-1.325 3.25s-1.958 1.357-3.223 1.357zM37.245 15.75c0-0.024-0.006-0.054-0.018-0.089s-0.018-0.065-0.018-0.089-0.006-0.042-0.018-0.054l-0.018-0.018v-0.036l-0.036-0.071c-1.624-3.738-4.083-6.673-7.377-8.804s-6.888-3.196-10.78-3.196c-2.555 0-5.014 0.464-7.377 1.393s-4.506 2.304-6.428 4.125c-1.922 1.821-3.432 3.982-4.53 6.482v0.089l-0.036 0.054v0.107l-0.036 0.071c-0.024 0.143-0.036 0.25-0.036 0.321 0 0.048 0.006 0.095 0.018 0.143s0.018 0.095 0.018 0.143c0 0.024 0.012 0.059 0.036 0.107v0.071l0.018 0.054 0.018 0.018v0.107c1.647 3.738 4.124 6.661 7.431 8.768s6.918 3.161 10.833 3.161c2.555 0 5.008-0.458 7.36-1.375s4.482-2.28 6.392-4.089c1.91-1.809 3.402-3.964 4.477-6.464 0.024 0 0.036-0.012 0.036-0.036v-0.054l0.018-0.036 0.018-0.018v-0.107l0.036-0.071c0.024-0.143 0.036-0.25 0.036-0.321 0-0.048-0.006-0.095-0.018-0.143s-0.018-0.095-0.018-0.143zM18.909 26.321c-3.39 0-6.53-0.887-9.419-2.661s-5.085-4.316-6.59-7.625c1.504-3.31 3.713-5.863 6.625-7.661s6.064-2.696 9.454-2.696c2.197 0 4.304 0.381 6.321 1.143s3.874 1.935 5.569 3.518c1.695 1.583 3.044 3.482 4.047 5.696-1.504 3.31-3.701 5.851-6.59 7.625s-6.029 2.661-9.419 2.661z"></path>
</symbol>
<symbol id="icon-close" viewBox="0 0 32 32">
<path d="M30.355 32c0.422 0 0.843-0.16 1.163-0.483 0.643-0.643 0.643-1.685 0-2.328l-28.707-28.707c-0.643-0.643-1.685-0.643-2.328 0s-0.643 1.685 0 2.329l28.707 28.706c0.323 0.321 0.744 0.483 1.165 0.483z"></path>
<path d="M1.645 32c0.422 0 0.843-0.16 1.163-0.483l28.709-28.706c0.643-0.643 0.643-1.686 0-2.329s-1.685-0.643-2.329 0l-28.707 28.707c-0.643 0.643-0.643 1.685 0 2.328 0.323 0.321 0.744 0.483 1.163 0.483z"></path>
</symbol>
<symbol id="icon-menu" viewBox="0 0 60 32">
<path d="M2 0h56c1.105 0 2 0.895 2 2s-0.895 2-2 2h-56c-1.105 0-2-0.895-2-2s0.895-2 2-2z"></path>
<path d="M2 14h56c1.105 0 2 0.895 2 2s-0.895 2-2 2h-56c-1.105 0-2-0.895-2-2s0.895-2 2-2z"></path>
<path d="M2 28h56c1.105 0 2 0.895 2 2s-0.895 2-2 2h-56c-1.105 0-2-0.895-2-2s0.895-2 2-2z"></path>
</symbol>
</defs>
</svg>
